<svg width="380" height="190" viewBox="0 0 380 190" xmlns="http://www.w3.org/2000/svg" role="img">
<title>Pirate crew GitHub stats banner</title>
<rect fill="#a8d8ea" x="0" y="0" width="380" height="150"/>
<rect fill="#8b5a2b" x="0" y="150" width="380" height="40"/>
<line stroke="#5a3a1a" x1="0" y1="160" x2="380" y2="160" stroke-width="1"/>
<line stroke="#5a3a1a" x1="0" y1="172" x2="380" y2="172" stroke-width="1"/>
<line stroke="#5a3a1a" x1="0" y1="184" x2="380" y2="184" stroke-width="1"/>
<circle cx="345" cy="25" r="14" fill="#f6d365"/>
<g transform="translate(35,15)"><polygon points="48,2 60,8 48,14" fill="#c0392b"/><rect x="10" y="0" width="40" height="14" fill="#c0392b"/><rect x="14" y="12" width="32" height="28" fill="#f0c294"/><rect x="10" y="10" width="40" height="8" fill="#c0392b"/><rect x="17" y="20" width="11" height="9" fill="#1a1a1a"/><line x1="17" y1="24" x2="10" y2="18" stroke="#1a1a1a" stroke-width="2"/><line x1="28" y1="22" x2="34" y2="16" stroke="#1a1a1a" stroke-width="2"/><rect x="34" y="22" width="5" height="5" fill="#1a1a1a"/><rect x="12" y="40" width="36" height="28" fill="#ecf0f1"/><rect x="12" y="46" width="36" height="6" fill="#c0392b"/><rect x="12" y="58" width="36" height="6" fill="#c0392b"/><rect x="2" y="44" width="10" height="22" fill="#f0c294"/><rect x="48" y="44" width="10" height="22" fill="#f0c294"/><rect x="16" y="68" width="11" height="18" fill="#2c3e50"/><rect x="33" y="68" width="11" height="18" fill="#2c3e50"/><rect x="14" y="86" width="15" height="8" fill="#1a1a1a"/><rect x="31" y="86" width="15" height="8" fill="#1a1a1a"/><rect x="5" y="98" width="50" height="30" rx="2" fill="#8b5a2b" stroke="#5a3a1a" stroke-width="1.5"/><text x="30" y="110" text-anchor="middle" font-size="11" fill="#f5e6c8" font-family="sans-serif">REPOS</text><text x="30" y="124" text-anchor="middle" font-size="16" font-weight="600" fill="#f5e6c8" font-family="sans-serif">9</text></g>
<g transform="translate(115,15)"><polygon points="48,2 60,8 48,14" fill="#16a085"/><rect x="10" y="0" width="40" height="14" fill="#16a085"/><rect x="14" y="12" width="32" height="28" fill="#f0c294"/><rect x="10" y="10" width="40" height="8" fill="#16a085"/><rect x="17" y="20" width="11" height="9" fill="#1a1a1a"/><line x1="17" y1="24" x2="10" y2="18" stroke="#1a1a1a" stroke-width="2"/><line x1="28" y1="22" x2="34" y2="16" stroke="#1a1a1a" stroke-width="2"/><rect x="34" y="22" width="5" height="5" fill="#1a1a1a"/><rect x="12" y="40" width="36" height="28" fill="#2c2c2c"/><rect x="12" y="46" width="36" height="6" fill="#16a085"/><rect x="12" y="58" width="36" height="6" fill="#16a085"/><rect x="2" y="44" width="10" height="22" fill="#f0c294"/><rect x="48" y="44" width="10" height="22" fill="#f0c294"/><rect x="16" y="68" width="11" height="18" fill="#2c3e50"/><rect x="33" y="68" width="11" height="18" fill="#2c3e50"/><rect x="14" y="86" width="15" height="8" fill="#1a1a1a"/><rect x="31" y="86" width="15" height="8" fill="#1a1a1a"/><rect x="5" y="98" width="50" height="30" rx="2" fill="#8b5a2b" stroke="#5a3a1a" stroke-width="1.5"/><text x="30" y="110" text-anchor="middle" font-size="11" fill="#f5e6c8" font-family="sans-serif">STARS</text><text x="30" y="124" text-anchor="middle" font-size="16" font-weight="600" fill="#f5e6c8" font-family="sans-serif">0</text></g>
<g transform="translate(195,15)"><polygon points="48,2 60,8 48,14" fill="#d4a017"/><rect x="10" y="0" width="40" height="14" fill="#d4a017"/><rect x="14" y="12" width="32" height="28" fill="#f0c294"/><rect x="10" y="10" width="40" height="8" fill="#d4a017"/><rect x="17" y="20" width="11" height="9" fill="#1a1a1a"/><line x1="17" y1="24" x2="10" y2="18" stroke="#1a1a1a" stroke-width="2"/><line x1="28" y1="22" x2="34" y2="16" stroke="#1a1a1a" stroke-width="2"/><rect x="34" y="22" width="5" height="5" fill="#1a1a1a"/><rect x="12" y="40" width="36" height="28" fill="#ecf0f1"/><rect x="12" y="46" width="36" height="6" fill="#d4a017"/><rect x="12" y="58" width="36" height="6" fill="#d4a017"/><rect x="2" y="44" width="10" height="22" fill="#f0c294"/><rect x="48" y="44" width="10" height="22" fill="#f0c294"/><rect x="16" y="68" width="11" height="18" fill="#2c3e50"/><rect x="33" y="68" width="11" height="18" fill="#2c3e50"/><rect x="14" y="86" width="15" height="8" fill="#1a1a1a"/><rect x="31" y="86" width="15" height="8" fill="#1a1a1a"/><rect x="5" y="98" width="50" height="30" rx="2" fill="#8b5a2b" stroke="#5a3a1a" stroke-width="1.5"/><text x="30" y="110" text-anchor="middle" font-size="11" fill="#f5e6c8" font-family="sans-serif">COMMITS</text><text x="30" y="124" text-anchor="middle" font-size="16" font-weight="600" fill="#f5e6c8" font-family="sans-serif">0</text></g>
<g transform="translate(275,15)"><polygon points="48,2 60,8 48,14" fill="#8e44ad"/><rect x="10" y="0" width="40" height="14" fill="#8e44ad"/><rect x="14" y="12" width="32" height="28" fill="#f0c294"/><rect x="10" y="10" width="40" height="8" fill="#8e44ad"/><rect x="17" y="20" width="11" height="9" fill="#1a1a1a"/><line x1="17" y1="24" x2="10" y2="18" stroke="#1a1a1a" stroke-width="2"/><line x1="28" y1="22" x2="34" y2="16" stroke="#1a1a1a" stroke-width="2"/><rect x="34" y="22" width="5" height="5" fill="#1a1a1a"/><rect x="12" y="40" width="36" height="28" fill="#2c2c2c"/><rect x="12" y="46" width="36" height="6" fill="#8e44ad"/><rect x="12" y="58" width="36" height="6" fill="#8e44ad"/><rect x="2" y="44" width="10" height="22" fill="#f0c294"/><rect x="48" y="44" width="10" height="22" fill="#f0c294"/><rect x="16" y="68" width="11" height="18" fill="#2c3e50"/><rect x="33" y="68" width="11" height="18" fill="#2c3e50"/><rect x="14" y="86" width="15" height="8" fill="#1a1a1a"/><rect x="31" y="86" width="15" height="8" fill="#1a1a1a"/><rect x="5" y="98" width="50" height="30" rx="2" fill="#8b5a2b" stroke="#5a3a1a" stroke-width="1.5"/><text x="30" y="110" text-anchor="middle" font-size="11" fill="#f5e6c8" font-family="sans-serif">PRS</text><text x="30" y="124" text-anchor="middle" font-size="16" font-weight="600" fill="#f5e6c8" font-family="sans-serif">0</text></g>
</svg>
